<?xml version="1.0" encoding="utf-8"?>
<!-- Generator: Adobe Illustrator 19.0.0, SVG Export Plug-In . SVG Version: 6.00 Build 0)  -->
<svg version="1.1" id="Layer_1" xmlns="http://www.w3.org/2000/svg" xmlns:xlink="http://www.w3.org/1999/xlink" x="0px" y="0px"
	 viewBox="-549 376.8 181 48.2" style="enable-background:new -549 376.8 181 48.2;" xml:space="preserve">
<style type="text/css">
	.st0{fill:#FFFFFF;}
</style>
<g>
	<path class="st0" d="M-430.6,392.8c0.9,0,1.7-0.1,2.5,0c0.3,0,0.6,0.4,0.8,0.7c2.1,3.5,4.1,6.9,6.1,10.4c0.2,0.3,0.4,0.6,0.6,1.1
		c0.2-0.3,0.4-0.5,0.5-0.8c2.1-3.5,4.2-6.9,6.2-10.4c0.4-0.7,0.8-0.9,1.6-0.9c0.6,0,1.1,0,1.8,0c0.2,6.4,0.3,12.8,0.5,19.2
		c-1.5,0-2.9,0-4.5,0c0-3.2,0-6.3,0-9.5c-0.1,0-0.2,0-0.2-0.1c-0.3,0.5-0.6,1-0.9,1.5c-1,1.8-2.1,3.6-3.1,5.4
		c-0.3,0.6-0.7,0.8-1.4,0.8c-1.5,0.2-2.3-0.4-2.9-1.7c-1-2.1-2.3-4.1-3.6-6c0,3.1,0,6.3,0,9.5c-1.5,0-3,0-4.6,0
		C-431,405.6-430.8,399.2-430.6,392.8z"/>
	<path class="st0" d="M-483.2,392.5c1.4,0,2.8,0,4.2,0c0,2.6,0,5.2,0,8c1.6-1.3,3.3-1.6,5-1.1c1.3,0.4,2.4,1.1,3.2,2.2
		c1.8,2.5,1.6,6.4-0.4,8.6c-2.2,2.4-4.9,2.6-8.5,0.5c-0.1,0.4-0.2,0.8-0.2,1.2c-1.1,0-2.2,0-3.3,0
		C-483.2,405.5-483.2,399-483.2,392.5z M-479.1,405.7c0,1.6,1,2.6,2.6,2.7c1.5,0,2.7-1.2,2.7-2.6c0-1.5-1.1-2.6-2.6-2.6
		C-478.1,403.1-479.1,404.1-479.1,405.7z"/>
	<path class="st0" d="M-526.4,403.3c-2.6,0-5,0-7.6,0c0,2,0,6.7,0,8.7c-1.6,0-3.1,0-4.6,0c0-9,0-18.4,0-22.1c4.4,0,8.9,0,13.4,0
		c0,1.3,0,2.5,0,3.9c-2.9,0-5.8,0-8.8,0c0,1.7,0,3.7,0,5.5c2.5,0,5,0,7.5,0C-526.4,400.6-526.4,401.9-526.4,403.3z"/>
	<path class="st0" d="M-393.5,412c-1.3,0-2.5,0-3.7,0c-0.1-0.4-0.1-0.8-0.2-1.4c-1.5,1.4-3.1,1.9-4.9,1.6c-1.4-0.3-2.5-0.9-3.4-2
		c-2-2.4-2-6.4,0-8.8c1.6-1.9,4.8-3.1,7.7-1.4c0.7-0.2,1.1-0.5,1.5-0.5c1-0.1,2,0,3,0C-393.5,403.6-393.5,407.7-393.5,412z
		 M-402.8,405.7c0,1.5,1.1,2.6,2.7,2.6c1.5,0,2.6-1.1,2.6-2.5c0-1.6-1.1-2.7-2.7-2.7C-401.7,403.1-402.9,404.2-402.8,405.7z"/>
	<path class="st0" d="M-500.5,406.8c-2.9,0-5.7,0-8.6,0c0.9,2.1,3.5,2.3,6.2,0.6c0.6,1,1.1,2,1.6,2.9c0,0.1-0.1,0.2-0.1,0.2
		c-2.7,2.3-7.7,2.2-10.2-0.3c-2-1.9-2.6-4.8-1.4-7.3c1.1-2.5,3.7-4,6.4-3.8C-502.5,399.4-500,402.5-500.5,406.8z M-504.7,404.2
		c-0.3-1.2-1.1-1.7-2.3-1.6c-1.2,0.1-2,0.7-2.1,1.7c1.4,0,2.7,0,4.1,0C-504.9,404.2-504.8,404.2-504.7,404.2z"/>
	<path class="st0" d="M-486.4,410.5c-4,3.5-10.9,1.7-12.2-3.1c-1.2-4.3,2.3-8.5,6.8-8.2c4.1,0.3,6.6,3.4,6.1,7.6c-2.8,0-5.7,0-8.6,0
		c1,2.1,3.5,2.3,6.2,0.7C-487.5,408.5-486.9,409.4-486.4,410.5z M-489.8,404.2c-0.4-1.1-1.1-1.7-2.2-1.7c-1.2,0-2,0.5-2.3,1.7
		C-492.8,404.2-491.3,404.2-489.8,404.2z"/>
	<path class="st0" d="M-447.3,406.8c-2.9,0-5.7,0-8.5,0c0.7,2.1,3.7,2.3,6.2,0.6c0.6,1,1.1,2,1.7,3c-1,1-2.3,1.4-3.6,1.7
		c-2.6,0.4-4.9,0-6.9-1.9c-1.9-1.9-2.4-4.8-1.3-7.3c1.1-2.4,3.6-4,6.4-3.8C-449.3,399.4-446.6,402.7-447.3,406.8z M-455.9,404.2
		c1.5,0,3,0,4.5,0c-0.2-1.1-0.9-1.6-2-1.7C-454.6,402.4-455.4,403-455.9,404.2z"/>
	<path class="st0" d="M-435.6,403.6c-1.2-0.4-2.2-0.7-3.3-1c-0.3-0.1-0.6-0.1-0.8,0c-0.1,0-0.1,0-0.2,0.1c-0.4,0.2-0.4,0.9,0.1,1.1
		c0,0,0,0,0,0c1,0.3,2.1,0.5,3.1,0.8c1.8,0.6,2.6,1.7,2.6,3.4c0,1.7-1.1,3.2-2.6,3.7c-3.1,1.1-6,0.7-8.9-1c0.6-1.1,1.1-2.1,1.6-2.9
		c1.6,0.4,3,0.8,4.4,1c0.1,0,0.1,0,0.2,0c0.5-0.1,0.6-0.7,0.2-1c-0.1-0.1-0.2-0.1-0.3-0.2c-1.2-0.5-2.5-0.7-3.6-1.3
		c-2.5-1.3-2.6-4.6-0.3-6.2c1.1-0.7,2.3-1,3.6-1c2,0,4,0.3,5.8,1.5C-434.6,401.7-435.1,402.6-435.6,403.6z"/>
	<path class="st0" d="M-382.8,389.8c1.4,0,2.8,0,4.2,0c0,6.5,0,15.6,0,22.1c-1.4,0-2.8,0-4.2,0
		C-382.8,405.5-382.8,396.3-382.8,389.8z"/>
	<path class="st0" d="M-390.2,389.8c1.4,0,2.8,0,4.2,0c0,6.5,0,15.6,0,22.1c-1.4,0-2.8,0-4.2,0
		C-390.2,405.5-390.2,396.3-390.2,389.8z"/>
	<path class="st0" d="M-519.1,411.9c-1.5,0-2.9,0-4.3,0c0-4.2,0-8.3,0-12.5c1.2,0,2.3,0,3.5,0c0.1,0.6,0.1,1.2,0.2,1.9
		c1.3-2,3-2.5,5.2-2.1c-0.1,1.4-0.2,2.8-0.4,4.2c-0.3-0.1-0.5-0.1-0.6-0.1c-2.1-0.4-3.6,0.8-3.6,2.9
		C-519.1,408.1-519.1,410-519.1,411.9z"/>
	<g>
		<circle class="st0" cx="-464.9" cy="393.6" r="4.1"/>
	</g>
	<path class="st0" d="M-464.9,400.4c-0.8,0-1.5-0.2-2.1-0.6c0,4.1,0,8.1,0,12.1c1.4,0,2.8,0,4.2,0c0-4.1,0-8.1,0-12.1
		C-463.4,400.2-464.2,400.4-464.9,400.4z"/>
</g>
</svg>
