<?xml version="1.0" standalone="no"?>
<!DOCTYPE svg PUBLIC "-//W3C//DTD SVG 20010904//EN"
 "http://www.w3.org/TR/2001/REC-SVG-20010904/DTD/svg10.dtd">
<svg version="1.0" xmlns="http://www.w3.org/2000/svg"
 width="279.000000pt" height="279.000000pt" viewBox="0 0 279.000000 279.000000"
 preserveAspectRatio="xMidYMid meet">
<metadata>
Created by potrace 1.11, written by Peter Selinger 2001-2013
</metadata>
<g transform="translate(0.000000,279.000000) scale(0.100000,-0.100000)"
fill="#000000" stroke="none">
<path d="M1379 2746 c-2 -2 -40 -6 -84 -9 -44 -4 -93 -9 -110 -12 -16 -3 -43
-8 -60 -11 -16 -3 -73 -18 -125 -34 -214 -65 -399 -177 -559 -339 -184 -186
-313 -429 -367 -691 -25 -121 -26 -388 -1 -510 49 -238 153 -454 306 -629 200
-231 487 -397 768 -446 133 -23 328 -28 433 -11 19 3 51 8 70 11 139 22 338
100 475 187 45 28 174 131 220 174 81 78 182 213 243 326 43 79 108 242 113
283 1 6 5 20 10 32 5 13 11 44 15 70 3 27 10 68 15 93 8 46 5 291 -5 369 -4
24 -15 78 -26 120 -89 352 -309 646 -622 834 -103 62 -280 134 -373 152 -130
25 -182 32 -246 34 -40 1 -76 4 -80 6 -3 3 -8 3 -10 1z"/>
</g>
</svg>
