<?xml version="1.0" encoding="utf-8"?>
<!-- Generator: Adobe Illustrator 19.0.0, SVG Export Plug-In . SVG Version: 6.00 Build 0)  -->
<svg version="1.1" id="Layer_1" xmlns="http://www.w3.org/2000/svg" xmlns:xlink="http://www.w3.org/1999/xlink" x="0px" y="0px"
	 viewBox="0 0 234 177.9" style="enable-background:new 0 0 234 177.9;" xml:space="preserve">
<style type="text/css">
	.st0{fill:#F4F7F9;}
	.st1{fill:#43505B;}
	.st2{fill:#FFFFFF;}
	.st3{fill:#E0E2E2;}
	.st4{fill:#C1C1C1;}
	.st5{fill:#5B5BF4;}
</style>
<g>
	<path class="st0" d="M6.6,22.6L6.6,22.6l0-4.7h0l0-5.7L6.4,171.8l221,0.3l0.2-131.2l-221-0.3L6.6,22.6z M63.8,149.1H17.6v-2h46.2
		V149.1z M93.8,139.2H17.6v-2h76.2V139.2z M133.8,129.3H17.6v-2h116.2V129.3z M133.8,119.4H17.6v-2h116.2V119.4z M143.8,109.5H17.6
		v-2h126.2V109.5z M143.8,99.5H17.6v-2h126.2V99.5z M153.8,89.6H17.6v-2h136.2V89.6z M181.7,144.5h-19.5v-2h19.5V144.5z M190.7,139
		h-28.5v-2h28.5V139z M214.7,134h-52.5V88.6h52.5V134z M16.5,46.3h199.7V77H16.5V46.3z"/>
	<path class="st1" d="M221.3,6.1L12.9,5.8c-3.5,0-6.3,2.8-6.3,6.3l0,5.7h0l0-0.7h0l0,0l221,0.3l0-5C227.6,8.9,224.8,6.1,221.3,6.1z
		 M16,14c-1.1,0-2-0.9-2-2c0-1.1,0.9-2,2-2c1.1,0,2,0.9,2,2C18.1,13.1,17.1,14,16,14z M23.6,14c-1.1,0-2-0.9-2-2c0-1.1,0.9-2,2-2
		c1.1,0,2,0.9,2,2C25.6,13.1,24.7,14,23.6,14z M31.1,14c-1.1,0-2-0.9-2-2c0-1.1,0.9-2,2-2c1.1,0,2,0.9,2,2
		C33.2,13.1,32.3,14,31.1,14z"/>
	<circle id="XMLID_78_" class="st2" cx="16" cy="11.9" r="2"/>
	<circle id="XMLID_77_" class="st2" cx="23.6" cy="11.9" r="2"/>
	<circle id="XMLID_76_" class="st2" cx="31.1" cy="11.9" r="2"/>
	<path class="st3" d="M6.6,17.1L6.6,17.1l221,0.3l0,5.4l-221-0.3l0,18.1l221,0.3h0l0-23.5h0L6.6,17.1z M67.5,33
		c0,1.5-1.2,2.6-2.6,2.6H19.5c-1.5,0-2.6-1.2-2.6-2.6v-3c0-1.5,1.2-2.6,2.6-2.6h45.4c1.5,0,2.6,1.2,2.6,2.6V33z M127.5,33
		c0,1.5-1.2,2.6-2.6,2.6H79.5c-1.5,0-2.6-1.2-2.6-2.6v-3c0-1.5,1.2-2.6,2.6-2.6h45.4c1.5,0,2.6,1.2,2.6,2.6V33z M218.5,33
		c0,1.5-1.2,2.6-2.6,2.6h-27.4c-1.5,0-2.6-1.2-2.6-2.6v-3c0-1.5,1.2-2.6,2.6-2.6h27.4c1.5,0,2.6,1.2,2.6,2.6V33z"/>
	<polygon id="XMLID_71_" class="st4" points="6.6,22.6 227.6,22.8 227.6,17.4 6.6,17.1 6.6,17.1 6.6,17.8 6.6,22.6 	"/>
	<path id="XMLID_70_" class="st4" d="M64.9,27.3H19.5c-1.5,0-2.6,1.2-2.6,2.6v3c0,1.5,1.2,2.6,2.6,2.6h45.4c1.5,0,2.6-1.2,2.6-2.6
		v-3C67.5,28.5,66.3,27.3,64.9,27.3z"/>
	<path id="XMLID_69_" class="st4" d="M124.9,27.3H79.5c-1.5,0-2.6,1.2-2.6,2.6v3c0,1.5,1.2,2.6,2.6,2.6h45.4c1.5,0,2.6-1.2,2.6-2.6
		v-3C127.5,28.5,126.3,27.3,124.9,27.3z"/>
	<path id="XMLID_68_" class="st4" d="M215.9,27.3h-27.4c-1.5,0-2.6,1.2-2.6,2.6v3c0,1.5,1.2,2.6,2.6,2.6h27.4c1.5,0,2.6-1.2,2.6-2.6
		v-3C218.5,28.5,217.3,27.3,215.9,27.3z"/>
	<path class="st4" d="M216.2,46.3H16.5V77h199.7V46.3z M68.5,68H25.8v-4h42.7V68z M108.5,59.3H25.8v-4h82.7V59.3z"/>
	<rect id="XMLID_64_" x="25.8" y="55.3" class="st3" width="82.7" height="4"/>
	<rect id="XMLID_63_" x="25.8" y="64" class="st3" width="42.7" height="4"/>
	<rect id="XMLID_62_" x="17.6" y="87.6" class="st4" width="136.2" height="2"/>
	<rect id="XMLID_61_" x="17.6" y="97.5" class="st4" width="126.2" height="2"/>
	<rect id="XMLID_60_" x="17.6" y="107.5" class="st4" width="126.2" height="2"/>
	<rect id="XMLID_59_" x="17.6" y="117.4" class="st4" width="116.2" height="2"/>
	<rect id="XMLID_58_" x="17.6" y="127.3" class="st4" width="116.2" height="2"/>
	<rect id="XMLID_57_" x="17.6" y="137.2" class="st4" width="76.2" height="2"/>
	<rect id="XMLID_56_" x="17.6" y="147.1" class="st4" width="46.2" height="2"/>
	<rect id="XMLID_55_" x="162.2" y="88.6" class="st5" width="52.5" height="45.3"/>
	<rect id="XMLID_54_" x="162.2" y="137" class="st4" width="28.5" height="2"/>
	<rect id="XMLID_53_" x="162.2" y="142.5" class="st4" width="19.5" height="2"/>
</g>
</svg>
