<?xml version="1.0" encoding="utf-8"?>
<!-- Generator: Adobe Illustrator 19.0.0, SVG Export Plug-In . SVG Version: 6.00 Build 0)  -->
<svg version="1.1" id="Layer_1" xmlns="http://www.w3.org/2000/svg" xmlns:xlink="http://www.w3.org/1999/xlink" x="0px" y="0px"
	 viewBox="-549 379.8 229.5 42.5" style="enable-background:new -549 379.8 229.5 42.5;" xml:space="preserve">
<style type="text/css">
	.st0{fill:#FFFFFF;}
</style>
<g>
	<path class="st0" d="M-436.1,391.9c0.9,0,1.7-0.1,2.5,0c0.3,0,0.6,0.4,0.8,0.7c2.1,3.6,4.2,7,6.2,10.6c0.2,0.3,0.4,0.6,0.6,1.1
		c0.2-0.3,0.4-0.5,0.5-0.8c2.1-3.6,4.3-7,6.3-10.6c0.4-0.7,0.8-0.9,1.6-0.9c0.6,0,1.1,0,1.8,0c0.2,6.5,0.3,13.1,0.5,19.6
		c-1.5,0-3,0-4.6,0c0-3.3,0-6.4,0-9.7c-0.1,0-0.2,0-0.2-0.1c-0.3,0.5-0.6,1-0.9,1.5c-1,1.8-2.1,3.7-3.2,5.5
		c-0.3,0.6-0.7,0.8-1.4,0.8c-1.5,0.2-2.3-0.4-3-1.7c-1-2.1-2.3-4.2-3.7-6.1c0,3.2,0,6.4,0,9.7c-1.5,0-3.1,0-4.7,0
		C-436.5,404.9-436.3,398.4-436.1,391.9z"/>
	<path class="st0" d="M-489.8,391.5c1.4,0,2.9,0,4.3,0c0,2.7,0,5.3,0,8.2c1.6-1.3,3.4-1.6,5.1-1.1c1.3,0.4,2.4,1.1,3.3,2.2
		c1.8,2.5,1.6,6.5-0.4,8.8c-2.2,2.4-5,2.7-8.7,0.5c-0.1,0.4-0.2,0.8-0.2,1.2c-1.1,0-2.2,0-3.4,0
		C-489.8,404.8-489.8,398.2-489.8,391.5z M-485.6,405c0,1.6,1,2.7,2.7,2.8c1.5,0,2.8-1.2,2.8-2.7c0-1.5-1.1-2.7-2.7-2.7
		C-484.6,402.4-485.6,403.4-485.6,405z"/>
	<path class="st0" d="M-533.8,402.6c-2.7,0-5.1,0-7.7,0c0,2,0,6.8,0,8.9c-1.6,0-3.2,0-4.7,0c0-9.2,0-18.8,0-22.5c4.5,0,9.1,0,13.7,0
		c0,1.3,0,2.5,0,4c-3,0-5.9,0-9,0c0,1.7,0,3.8,0,5.6c2.5,0,5.1,0,7.6,0C-533.8,399.8-533.8,401.1-533.8,402.6z"/>
	<path class="st0" d="M-398.3,411.4c-1.3,0-2.5,0-3.8,0c-0.1-0.4-0.1-0.8-0.2-1.4c-1.5,1.4-3.2,1.9-5,1.6c-1.4-0.3-2.5-0.9-3.5-2
		c-2-2.4-2-6.5,0-9c1.6-1.9,4.9-3.2,7.9-1.4c0.7-0.2,1.1-0.5,1.5-0.5c1-0.1,2,0,3.1,0C-398.3,402.9-398.3,407-398.3,411.4z
		 M-407.8,405c0,1.5,1.1,2.7,2.8,2.7c1.5,0,2.7-1.1,2.7-2.5c0-1.6-1.1-2.8-2.8-2.8C-406.7,402.4-407.9,403.5-407.8,405z"/>
	<path class="st0" d="M-507.4,406.1c-3,0-5.8,0-8.8,0c0.9,2.1,3.6,2.3,6.3,0.6c0.6,1,1.1,2,1.6,3c0,0.1-0.1,0.2-0.1,0.2
		c-2.8,2.3-7.9,2.2-10.4-0.3c-2-1.9-2.7-4.9-1.4-7.4c1.1-2.5,3.8-4.1,6.5-3.9C-509.4,398.6-506.9,401.7-507.4,406.1z M-511.7,403.5
		c-0.3-1.2-1.1-1.7-2.3-1.6c-1.2,0.1-2,0.7-2.1,1.7c1.4,0,2.8,0,4.2,0C-511.9,403.5-511.8,403.5-511.7,403.5z"/>
	<path class="st0" d="M-493,409.9c-4.1,3.6-11.1,1.7-12.4-3.2c-1.2-4.4,2.3-8.7,6.9-8.4c4.2,0.3,6.7,3.5,6.2,7.7c-2.9,0-5.8,0-8.8,0
		c1,2.1,3.6,2.3,6.3,0.7C-494.1,407.9-493.5,408.8-493,409.9z M-496.5,403.5c-0.4-1.1-1.1-1.7-2.2-1.7c-1.2,0-2,0.5-2.3,1.7
		C-499.6,403.5-498,403.5-496.5,403.5z"/>
	<path class="st0" d="M-453.2,406.1c-3,0-5.8,0-8.7,0c0.7,2.1,3.8,2.3,6.3,0.6c0.6,1,1.1,2,1.7,3.1c-1,1-2.3,1.4-3.7,1.7
		c-2.7,0.4-5,0-7-1.9c-1.9-1.9-2.4-4.9-1.3-7.4c1.1-2.4,3.7-4.1,6.5-3.9C-455.2,398.6-452.4,401.9-453.2,406.1z M-461.9,403.5
		c1.5,0,3.1,0,4.6,0c-0.2-1.1-0.9-1.6-2-1.7C-460.6,401.6-461.4,402.3-461.9,403.5z"/>
	<path class="st0" d="M-441.2,402.9c-1.2-0.4-2.2-0.7-3.4-1c-0.3-0.1-0.6-0.1-0.8,0c-0.1,0-0.1,0-0.2,0.1c-0.4,0.2-0.4,0.9,0.1,1.1
		l0,0c1,0.3,2.1,0.5,3.2,0.8c1.8,0.6,2.7,1.7,2.7,3.5c0,1.7-1.1,3.3-2.7,3.8c-3.2,1.1-6.1,0.7-9.1-1c0.6-1.1,1.1-2.1,1.6-3
		c1.6,0.4,3.1,0.8,4.5,1c0.1,0,0.1,0,0.2,0c0.5-0.1,0.6-0.7,0.2-1c-0.1-0.1-0.2-0.1-0.3-0.2c-1.2-0.5-2.5-0.7-3.7-1.3
		c-2.5-1.3-2.7-4.7-0.3-6.3c1.1-0.7,2.3-1,3.7-1c2,0,4.1,0.3,5.9,1.5C-440.2,400.9-440.7,401.8-441.2,402.9z"/>
	<path class="st0" d="M-387.4,388.8c1.4,0,2.9,0,4.3,0c0,6.6,0,15.9,0,22.5c-1.4,0-2.9,0-4.3,0
		C-387.4,404.8-387.4,395.4-387.4,388.8z"/>
	<path class="st0" d="M-394.9,388.8c1.4,0,2.9,0,4.3,0c0,6.6,0,15.9,0,22.5c-1.4,0-2.9,0-4.3,0
		C-394.9,404.8-394.9,395.4-394.9,388.8z"/>
	<path class="st0" d="M-526.4,411.3c-1.5,0-3,0-4.4,0c0-4.3,0-8.5,0-12.7c1.2,0,2.3,0,3.6,0c0.1,0.6,0.1,1.2,0.2,1.9
		c1.3-2,3.1-2.5,5.3-2.1c-0.1,1.4-0.2,2.9-0.4,4.3c-0.3-0.1-0.5-0.1-0.6-0.1c-2.1-0.4-3.7,0.8-3.7,3
		C-526.4,407.5-526.4,409.4-526.4,411.3z"/>
	<g>
		<circle class="st0" cx="-471.1" cy="392.7" r="4.2"/>
	</g>
	<path class="st0" d="M-471.1,399.6c-0.8,0-1.5-0.2-2.1-0.6c0,4.2,0,8.3,0,12.3c1.4,0,2.9,0,4.3,0c0-4.2,0-8.3,0-12.3
		C-469.6,399.4-470.4,399.6-471.1,399.6z"/>
</g>
<g>
	<path class="st0" d="M-351.6,394.1c1.4-3,2.7-5.8,4-8.6C-349.8,387.9-351.8,392.5-351.6,394.1z"/>
	<path class="st0" d="M-335.3,403.9c-1.1-0.6-2-1.3-1.8-2.7c0.2-1.2,0.5-2.4,0.8-3.8c-2.1,1.4-4.4,2.2-4.7,5.1
		c-0.1,1-0.5,1.9-0.9,2.8c-0.5,1.1-1.1,2.3-2.6,2.3c-1.5,0.1-2.7-0.6-3.6-1.8c-0.2-0.3-0.3-0.5-0.4-0.8c-0.6,0.5-1.1,1.1-1.7,1.5
		c-1.8,1.4-4.1,0.8-4.9-1.4c-1-2.5-0.8-5-0.4-7.5c0.9-5.7,3.1-10.8,6.8-15.2c0,0,0.1-0.1,0.1-0.1h-21.3c-3.8,0-6.8,3.1-6.8,6.8v14
		l-0.1,16.5l8.6-9.6h1.3c-0.2-0.3-0.5-0.7-0.7-1.1c3.2-3.9,7.2-7.3,8.5-12.6c-2.2-0.6-3.7,0.6-5.2,1.6c-1.1,0.7-1.7,1.6-2,2.9
		c-0.6,2.4-1.3,4.8-2.1,7.2c-0.2,0.6-0.6,1.2-1.1,1.6c-0.3,0.3-1.2,0.5-1.4,0.3c-0.4-0.3-0.8-1.1-0.7-1.6c0.7-3.3,1.6-6.6,2.4-9.8
		c0.6-2.3,1.1-4.6,1.7-6.9c-0.2-0.2-0.4-0.3-0.6-0.5c-0.3,0.5-0.6,1.1-0.9,1.6c-0.7,0.9-1.5,1.1-2.4,0.3c-1-0.9-0.2-1.5,0.5-2.1
		c1.3-1,2.6-1.9,3.8-2.9c0.5-0.5,0.9-1.1,1.3-1.7c0.2-0.3,0.5-0.8,0.7-0.8c1.9,0.3,3-1.5,4.7-1.6c0.9,0,2.2-0.2,2.6,0.3
		c0.5,0.7,0.6,2,0.3,2.9c-0.9,2.4-2.2,4.6-3.2,6.7c0.9,0.3,2,0.3,2.8,0.9c1.7,1.1,2,2.9,1,5.3c-1.5,3.6-3.6,6.9-6.4,9.7
		c-0.1,0.1-0.3,0.3-0.5,0.4h32.9c1-3.7,1.7-7.5,2-11.5c-1.6,1.8-3,3.3-4.2,4.8C-333.6,404.2-334.3,404.5-335.3,403.9z"/>
	<path class="st0" d="M-362.6,387.7c-0.5,1.9-1,3.8-1.4,5.7c0.1,0,0.1,0.1,0.2,0.1c1.6-2.5,3.2-5,5-7.7
		C-360.5,385.8-362.4,386.8-362.6,387.7z"/>
	<path class="st0" d="M-328.5,382.4h-16.7c0.2,0.5,0.2,1.2,0,1.8c-0.5,1.5-0.9,3-1.6,4.3c-2,3.8-4.2,7.5-6.2,11.3
		c-0.8,1.6-0.7,3.4,0.2,5c0.4,0.8,1.3,0.8,1.8,0.2c0.9-1,1.8-2.2,2.4-3.4c0.8-1.7,1.2-3.6,2-5.3c0.4-1,1.2-1.8,1.9-2.6
		c1.4-1.3,2.8-1,3.7,0.6c0.3,0.5,0.6,1.1,0.8,1.6c0.2,0.5,0.2,1.1,0.2,1.9c2-1.5,4.7-1.6,6-4c0.5-0.8,1.2-1.4,1.9-2.1
		c1.2-1.2,2.6-1.3,3.9-0.2c0.4,0.4,0.3,1.4,0.5,2.1c-0.6,0-1.2,0-2.2,0c-0.8,1.6-1.7,3.5-2.6,5.5c0.1,0.1,0.1,0.1,0.2,0.2
		c0.8-0.8,1.6-1.7,2.3-2.5c0.7-0.7,1.3-1.6,2.5-1.2c1.4,0.5,2.3,1.8,2.2,3.1c-0.1,1.6-0.2,3.3-0.5,4.9c-0.4,2-0.9,4-1.5,6
		c3.2-0.5,5.7-3.4,5.7-6.7v-14C-321.7,385.4-324.7,382.4-328.5,382.4z"/>
	<path class="st0" d="M-345.2,404.6c1.8-2.4,2-5.2,2.2-7.9C-345,398.4-346.3,403.1-345.2,404.6z"/>
</g>
</svg>
