<?xml version="1.0" encoding="utf-8"?>
<!-- Generator: Adobe Illustrator 19.0.0, SVG Export Plug-In . SVG Version: 6.00 Build 0)  -->
<svg version="1.1" id="Layer_1" xmlns="http://www.w3.org/2000/svg" xmlns:xlink="http://www.w3.org/1999/xlink" x="0px" y="0px"
	 viewBox="0 0 234 177.9" style="enable-background:new 0 0 234 177.9;" xml:space="preserve">
<style type="text/css">
	.st0{fill:#F4F7F9;}
	.st1{fill:#43505B;}
	.st2{fill:#FFFFFF;}
	.st3{fill:#C1C1C1;}
	.st4{fill:#E0E2E2;}
	.st5{fill:#CFD1D1;}
	.st6{fill:#5B5BF4;}
</style>
<g>
	<polygon id="XMLID_89_" class="st0" points="6.6,17.3 6.6,17.3 6.6,11.6 6.6,22.3 63.4,22.3 63.4,41.6 63.5,41.6 63.5,42.1 
		63.4,42.1 63.4,56.6 63.5,56.6 63.5,57.1 63.4,57.1 63.4,71.6 63.5,71.6 63.5,72.1 63.4,72.1 63.4,86.6 63.5,86.6 63.5,87.1 
		63.4,87.1 63.4,101.6 63.5,101.6 63.5,102.1 63.4,102.1 63.4,116.6 63.5,116.6 63.5,117.1 63.4,117.1 63.4,131.6 63.5,131.6 
		63.5,132.1 63.4,132.1 63.4,146.6 63.5,146.6 63.5,147.1 63.4,147.1 63.4,161.6 63.5,161.6 63.5,162.1 63.4,162.1 63.4,171.4 
		88.9,171.4 88.9,69.1 88.9,45.6 203.7,45.6 203.7,69.1 203.7,171.6 227.4,171.6 227.6,22.3 6.6,22.1 	"/>
	<polygon id="XMLID_88_" class="st0" points="227.6,16.9 227.6,16.9 227.6,11.9 	"/>
	<path class="st1" d="M6.6,17.3l0-0.7l221,0.3l0-5c0-3.5-2.8-6.3-6.3-6.3L12.9,5.4c-3.5,0-6.3,2.8-6.3,6.3L6.6,17.3L6.6,17.3z
		 M31.2,9.4c1.1,0,2,0.9,2,2c0,1.1-0.9,2-2,2c-1.1,0-2-0.9-2-2C29.1,10.3,30.1,9.4,31.2,9.4z M23.6,9.4c1.1,0,2,0.9,2,2
		c0,1.1-0.9,2-2,2c-1.1,0-2-0.9-2-2C21.6,10.3,22.5,9.4,23.6,9.4z M16.1,9.4c1.1,0,2,0.9,2,2c0,1.1-0.9,2-2,2s-2-0.9-2-2
		C14,10.3,14.9,9.4,16.1,9.4z"/>
	<circle id="XMLID_83_" class="st2" cx="16.1" cy="11.4" r="2"/>
	<circle id="XMLID_82_" class="st2" cx="23.6" cy="11.4" r="2"/>
	<circle id="XMLID_81_" class="st2" cx="31.2" cy="11.4" r="2"/>
	<polygon id="XMLID_80_" class="st3" points="6.6,16.6 6.6,17.3 6.6,22.1 227.6,22.3 227.6,22.3 227.6,16.9 227.6,16.9 227.6,16.9 	
		"/>
	<path class="st4" d="M88.9,69.1v102.3v1.1h114.8v-1V69.1H88.9z M115.1,157.8v-2h62.3v2H115.1z M147.5,78.8c6.6,0,12,5.4,12,12
		c0,6.6-5.4,12-12,12c-6.6,0-12-5.4-12-12C135.5,84.2,140.9,78.8,147.5,78.8z M130.6,113.8h31.3v2h-31.3V113.8z M95.1,124.3h102.3v2
		H95.1V124.3z M95.1,134.8h102.3v2H95.1V134.8z M95.1,145.3h102.3v2H95.1V145.3z"/>
	<polygon id="XMLID_72_" class="st4" points="6.4,41.6 63.4,41.6 63.4,22.3 6.6,22.3 6.4,22.3 6.4,42 6.4,42 	"/>
	<rect id="XMLID_71_" x="63.4" y="42.1" class="st4" width="0.1" height="14.5"/>
	<polygon id="XMLID_70_" class="st4" points="6.4,162.1 6.4,161.6 63.4,161.6 63.4,147.1 6.4,147.1 6.4,146.6 63.4,146.6 
		63.4,132.1 6.4,132.1 6.4,131.6 63.4,131.6 63.4,117.1 6.4,117.1 6.4,116.6 63.4,116.6 63.4,102.1 6.4,102.1 6.4,101.6 63.4,101.6 
		63.4,87.1 6.4,87.1 6.4,86.6 63.4,86.6 63.4,72.1 6.4,72.1 6.4,71.6 63.4,71.6 63.4,57.1 6.4,57.1 6.4,56.6 6.4,56.6 6.4,171.6 
		63.4,171.6 63.4,171.4 63.4,162.1 	"/>
	<polygon id="XMLID_69_" class="st5" points="6.4,57.1 63.4,57.1 63.5,57.1 63.5,56.6 63.4,56.6 63.4,56.6 63.4,42.1 63.4,42.1 
		63.5,42.1 63.5,41.6 63.4,41.6 6.4,41.6 6.4,42 6.4,42 6.4,42 6.4,56.6 6.4,56.6 6.4,56.6 	"/>
	<polygon id="XMLID_68_" class="st5" points="6.4,71.6 6.4,72.1 63.4,72.1 63.5,72.1 63.5,71.6 63.4,71.6 	"/>
	<polygon id="XMLID_67_" class="st5" points="6.4,86.6 6.4,87.1 63.4,87.1 63.5,87.1 63.5,86.6 63.4,86.6 	"/>
	<polygon id="XMLID_66_" class="st5" points="6.4,101.6 6.4,102.1 63.4,102.1 63.5,102.1 63.5,101.6 63.4,101.6 	"/>
	<polygon id="XMLID_65_" class="st5" points="6.4,116.6 6.4,117.1 63.4,117.1 63.5,117.1 63.5,116.6 63.4,116.6 	"/>
	<polygon id="XMLID_64_" class="st5" points="6.4,131.6 6.4,132.1 63.4,132.1 63.5,132.1 63.5,131.6 63.4,131.6 	"/>
	<polygon id="XMLID_63_" class="st5" points="6.4,146.6 6.4,147.1 63.4,147.1 63.5,147.1 63.5,146.6 63.4,146.6 	"/>
	<polygon id="XMLID_62_" class="st5" points="6.4,161.6 6.4,162.1 63.4,162.1 63.5,162.1 63.5,161.6 63.4,161.6 	"/>
	<path class="st6" d="M203.7,45.6H88.9v23.5h114.8V45.6z M180.5,58.7h-61.2v-2h61.2V58.7z"/>
	<circle id="XMLID_59_" class="st6" cx="147.5" cy="90.8" r="12"/>
	<rect id="XMLID_58_" x="130.6" y="113.8" class="st1" width="31.3" height="2"/>
	<rect id="XMLID_57_" x="95.1" y="124.3" class="st1" width="102.3" height="2"/>
	<rect id="XMLID_56_" x="95.1" y="134.8" class="st1" width="102.3" height="2"/>
	<rect id="XMLID_55_" x="95.1" y="145.3" class="st1" width="102.3" height="2"/>
	<rect id="XMLID_54_" x="115.1" y="155.8" class="st1" width="62.3" height="2"/>
	<rect id="XMLID_53_" x="119.3" y="56.7" class="st2" width="61.2" height="2"/>
</g>
</svg>
